<svg xmlns="http://www.w3.org/2000/svg" xmlns:xlink="http://www.w3.org/1999/xlink" version="1.1" x="0px" y="0px" viewBox="0 0 50.4 63" enable-background="new 0 0 50.4 50.4" xml:space="preserve"><g><rect x="16.232" y="48.685" width="28.452" height="1.716"/><g><path d="M42.508,39.232l-0.469-1.651l0.234,0.826l-0.238-0.825c0.021-0.007,2.092-0.637,4.02-2.974    c2.074-2.527,2.56-4.722,2.566-4.743l1.679,0.348c-0.02,0.105-0.556,2.607-2.922,5.484C45.089,38.476,42.612,39.203,42.508,39.232    L42.508,39.232z"/></g><g><path d="M40.537,35.772l-0.474-1.65c0.014-0.003,1.347-0.417,2.599-1.935c1.364-1.657,1.688-3.095,1.69-3.11l1.679,0.351    c-0.014,0.075-0.393,1.841-2.046,3.851C42.374,35.235,40.611,35.751,40.537,35.772L40.537,35.772z"/></g></g><g><path d="M47.251,20.643l-11.884-2.488c-0.054-0.005-0.107-0.017-0.161-0.025c-0.838-0.106-1.637,0.169-2.222,0.687l-6.208,5.92   l-6.196-5.704l8.591-8.604c0.419-0.362,0.702-0.888,0.75-1.486c0.089-1.198-0.808-2.24-2.004-2.332   c-0.646-0.047-1.243,0.189-1.672,0.603L13.966,18.518c0.097-0.312,0.166-0.635,0.195-0.974c0.208-2.5-1.649-4.693-4.152-4.901   c-2.5-0.208-4.693,1.645-4.904,4.145c-0.208,2.507,1.647,4.697,4.15,4.904c1.034,0.087,2.006-0.192,2.816-0.712l-4.103,9.04   l-6.92,3.975c-0.502,0.302-0.881,0.808-1.005,1.426c-0.234,1.176,0.528,2.326,1.703,2.561C2.244,38.08,2.739,38,3.158,37.783   l7.065-4.05c0.29-0.188,0.533-0.445,0.71-0.756l2.998-5.045l6.327,5.147c1.479,1.154,2.267,1.79,3.872,2.202l7.595,0.93   l3.034,8.727c0.355,0.953,1.771,1.487,2.487,1.457c1.305-0.057,2.074-0.791,2.271-2.335c0.061-0.483-0.003-0.95-0.167-1.371   l-3.665-10.314c-0.323-0.753-0.96-1.339-1.768-1.587l-3.562-1.657l5.307-5.127l10.428,2.149c0.064,0.016,0.131,0.027,0.191,0.032   c1.548,0.194,2.956-0.895,3.15-2.44C49.616,22.294,48.658,20.958,47.251,20.643z"/></g><text x="0" y="65.4" fill="#000000" font-size="5px" font-weight="bold" font-family="'Helvetica Neue', Helvetica, Arial-Unicode, Arial, Sans-serif"><!-- Created by Luis Prado --></text><text x="0" y="70.4" fill="#000000" font-size="5px" font-weight="bold" font-family="'Helvetica Neue', Helvetica, Arial-Unicode, Arial, Sans-serif"><!-- from the Noun Project --></text></svg>