<svg xmlns="http://www.w3.org/2000/svg" xmlns:xlink="http://www.w3.org/1999/xlink" version="1.1" x="0px" y="0px" viewBox="0 0 407.982 586.75" style="enable-background:new 0 0 407.982 469.4;" xml:space="preserve"><g><path d="M41.349,307.432c5.18,5.087,11.794,7.344,17.694,7.344c0.094,0,0.188,0,0.281-0.001c8.64-0.078,15.744-3.716,20.944-6.954   c0.551-0.35,1.075-0.697,1.581-1.041c10.016,10.246,16.094,19.927,15.81,38.946l-30.836,18.204   c-3.307,1.952-5.534,5.317-6.039,9.124c-0.504,3.807,0.771,7.637,3.458,10.382l23.8,24.328c0.349-3.97,1.339-8.263,3.175-12.883   c2.571-6.468,4.457-10.775,5.834-13.657l-3.787-3.871l11.757-6.94c-0.926,1.491-1.854,3.064-2.776,4.716   c-3.229,5.776-6.387,12.539-9.123,20.364c-1.973,5.637-3.708,11.826-5.099,18.549c-2.594,12.544-3.962,26.98-3.271,43.382   c0.288,6.898,6.113,12.256,13.014,11.967c5.27-0.223,9.64-3.676,11.281-8.369c0.506-1.449,0.753-3.016,0.685-4.645   c-0.232-5.586-0.195-10.86,0.063-15.837c0.764-14.763,3.477-26.912,6.927-36.801c4.56-13.043,10.437-22.176,15.033-27.977   c2.297-2.898,4.273-4.955,5.594-6.225c0.024-0.024,0.045-0.043,0.069-0.066c0.624-0.597,1.099-1.014,1.378-1.253   c0.14-0.123,0.233-0.199,0.27-0.225l0.007-0.008c2.781-2.162,4.393-5.271,4.745-8.522c0.234-0.917,0.359-1.893,0.346-2.91   c-0.283-23.833-1.255-47.624-8.983-69.749c0.149,0.001,0.292,0.008,0.442,0.008c4.946-0.047,10.613-0.483,16.128-3.568   c2.725-1.547,5.352-3.934,7.119-7.088c1.785-3.144,2.633-6.866,2.625-10.76c-0.024-5.836-1.714-12.197-5.087-19.87   c-3.398-7.666-8.564-16.663-16.019-27.534c-2.501-3.643-7.48-4.57-11.124-2.068c-3.642,2.499-4.569,7.48-2.068,11.122   c7.071,10.299,11.754,18.563,14.577,24.954c2.846,6.388,3.743,10.879,3.72,13.396c-0.011,1.711-0.325,2.469-0.555,2.891   c-0.342,0.563-0.796,1.054-2.471,1.66c-1.611,0.563-4.156,0.879-6.846,0.865c-2.33,0.002-4.756-0.199-6.918-0.422   c-2.232-0.214-3.912-0.478-5.995-0.504c-0.516,0-1.019,0.053-1.507,0.146c-0.151-0.024-0.303-0.045-0.454-0.066   c-3.243,6.642-9.432,11.754-17.22,13.306c-1.591,0.316-3.211,0.478-4.817,0.478c-2.816,0-5.538-0.495-8.085-1.395   c-3.388,1.705-6.776,3.409-10.164,5.113c-0.749,0.385-1.473,1.004-2.142,1.766c-0.131,0.111-0.265,0.218-0.391,0.338h-0.001   c0,0,0,0-0.015,0.013l0.001,0.001c-0.233,0.224-2.916,2.685-6.577,4.949c-3.752,2.382-8.521,4.31-12.014,4.241   c-2.55-0.073-4.41-0.586-6.872-2.863c-2.422-2.305-5.352-6.98-7.597-15.45c-1.138-4.271-5.521-6.808-9.789-5.673   c-4.27,1.138-6.809,5.521-5.671,9.789C32.139,294.842,36.049,302.294,41.349,307.432z"/><path d="M113.011,424.927c2.229-0.479,4.355-1.562,6.105-3.273c4.934-4.83,5.021-12.743,0.193-17.679l-0.394-0.403   c-0.1,0.277-0.209,0.547-0.307,0.825C116.445,410.599,114.547,418.088,113.011,424.927z"/><ellipse transform="matrix(0.9807 -0.1955 0.1955 0.9807 -48.7839 24.309)" cx="98.736" cy="259.25" rx="22.496" ry="22.495"/><path d="M34.178,228.161l17.553,9.729l-12.167,9.147c-0.5,0.376-0.713,1.022-0.537,1.621c0.177,0.601,0.704,1.028,1.327,1.073   l15.529,1.164c0.038,0.003,0.076,0.004,0.113,0.004c0.776,0,1.435-0.601,1.494-1.389c0.063-0.827-0.558-1.545-1.382-1.608h-0.003   l-11.551-0.865l10.828-8.138c0.403-0.305,0.629-0.798,0.594-1.305c-0.034-0.504-0.326-0.961-0.768-1.206l-15.566-8.625   l17.097-2.166c0.487-0.063,0.914-0.359,1.142-0.794c0.228-0.436,0.226-0.953,0-1.389L50.614,209.5l15.807,6.539   c0.472,0.195,1.009,0.137,1.428-0.155c0.421-0.29,0.663-0.773,0.646-1.284l-0.515-14.853l12.088,14.555   c0.294,0.354,0.738,0.556,1.198,0.541c0.461-0.015,0.893-0.243,1.165-0.614l6.567-8.969l1.545,10.815   c0.116,0.82,0.876,1.391,1.696,1.273c0.82-0.116,1.391-0.876,1.272-1.696l-2.063-14.46c-0.088-0.605-0.528-1.095-1.121-1.243   c-0.594-0.148-1.215,0.075-1.575,0.569l-7.608,10.388l-13.661-16.453c-0.412-0.494-1.086-0.672-1.688-0.442   c-0.604,0.227-0.989,0.809-0.966,1.453l0.584,16.91l-17.464-7.226c-0.584-0.24-1.256-0.09-1.681,0.373   c-0.425,0.466-0.515,1.148-0.223,1.707l8.177,15.662l-19.508,2.471c-0.644,0.081-1.163,0.569-1.285,1.205   C33.31,227.204,33.61,227.847,34.178,228.161z"/><path d="M197.327,139.556c-17.13,15.942-18.093,42.751-2.152,59.88c15.94,17.131,42.75,18.094,59.88,2.152   c14.008-13.036,17.198-33.338,9.18-49.673L383.533,27.047c13.728-14.371,12.428-15.768-2.891-3.105L247.533,133.968   C231.816,124.795,211.336,126.52,197.327,139.556z M238.453,139.933c3.203-1.333,6.881,0.184,8.214,3.386   c1.333,3.203-0.182,6.879-3.386,8.213c-3.202,1.332-6.879-0.184-8.212-3.385C233.735,144.944,235.252,141.267,238.453,139.933z    M225.966,160.174c1.497,1.609,1.407,4.129-0.202,5.627c-1.609,1.498-4.131,1.407-5.627-0.201   c-1.498-1.611-1.408-4.131,0.201-5.629C221.948,158.473,224.468,158.565,225.966,160.174z M214.361,140.629   c2.938-2.734,7.534-2.569,10.269,0.368c2.733,2.939,2.567,7.534-0.37,10.269c-2.937,2.733-7.534,2.568-10.268-0.369   C211.258,147.959,211.424,143.362,214.361,140.629z M200.216,146.348c1.61-1.499,4.13-1.408,5.628,0.201   c1.498,1.609,1.407,4.13-0.203,5.628c-1.609,1.499-4.129,1.407-5.627-0.202C198.516,150.366,198.607,147.846,200.216,146.348z    M189.164,165.676c-1.334-3.203,0.181-6.881,3.385-8.213c3.203-1.334,6.879,0.182,8.212,3.384c1.333,3.203-0.182,6.88-3.386,8.213   C194.173,170.394,190.496,168.877,189.164,165.676z M198.93,171.645c2.03-0.845,4.361,0.117,5.206,2.146   c0.845,2.029-0.116,4.361-2.146,5.207c-2.031,0.844-4.362-0.117-5.207-2.146C195.939,174.822,196.899,172.491,198.93,171.645z    M202.678,192.864c-2.031,0.844-4.361-0.117-5.207-2.146c-0.844-2.03,0.117-4.361,2.146-5.207c2.03-0.845,4.361,0.117,5.206,2.146   C205.668,189.686,204.708,192.018,202.678,192.864z M205.451,165.713c-1.497-1.609-1.407-4.128,0.203-5.627   c1.609-1.498,4.129-1.407,5.627,0.201c1.499,1.611,1.407,4.131-0.202,5.629C209.469,167.414,206.95,167.324,205.451,165.713z    M216.287,199.283c-2.03,0.845-4.361-0.116-5.207-2.146c-0.844-2.029,0.116-4.361,2.146-5.207c2.031-0.844,4.361,0.117,5.207,2.146   C219.278,196.107,218.318,198.438,216.287,199.283z M221.949,185.287c-2.938,2.734-7.535,2.568-10.27-0.369   c-2.732-2.938-2.567-7.534,0.369-10.268c2.938-2.734,7.535-2.568,10.27,0.369C225.053,177.957,224.887,182.553,221.949,185.287z"/><path d="M214.147,226.085c21.451,5.028,45.076-3.644,58.231-21.299c7.134-9.573,11.045-20.736,11.638-32.646   c0.146-2.943-0.057-5.892-0.375-8.816c-0.094-0.87-0.797-7.247-1.885-6.026c0.387-0.434,0.773-0.867,1.16-1.301   c6.407-7.185,12.815-14.37,19.222-21.555c20.363-22.836,40.727-45.671,61.091-68.506c4.217-4.73,8.435-9.459,12.652-14.189   c1.497-1.678-0.97-4.163-2.475-2.475c-31.041,34.808-62.082,69.618-93.123,104.427c-0.334,0.375-0.668,0.75-1.003,1.125   c-0.86,0.964-0.381,2.017-0.103,3.148c0.903,3.676,1.258,7.452,1.367,11.227c0.398,13.629-4.934,26.892-13.891,37.029   c-16.976,19.212-45.862,22.797-67.671,10.087c-22.169-12.92-31.14-40.526-23.018-64.368c9.081-26.658,38.566-40.75,65.225-33.72   c4.102,1.082,4.078,0.852,7.029-1.422c3.371-2.597,6.741-5.193,10.112-7.79c11.364-8.754,22.729-17.508,34.093-26.263   c20.933-16.124,41.864-32.248,62.796-48.373c0.755-0.582,1.51-1.163,2.266-1.745c1.761-1.357,0.021-4.4-1.768-3.022   c-36.947,28.462-73.895,56.924-110.842,85.385c-0.398,0.307-0.796,0.613-1.194,0.92c0.571-0.44-6.69-2.229-7.472-2.369   c-3.128-0.558-6.309-0.757-9.481-0.802c-12.134-0.175-24.058,4.026-33.86,11.036c-18.189,13.008-26.434,35.92-22.421,57.623   C174.539,203.535,192.525,221.016,214.147,226.085z"/><path d="M201.923,59.324c-8.177,7.61-8.637,20.409-1.026,28.586c7.609,8.177,20.408,8.638,28.585,1.027   c6.688-6.224,8.206-15.912,4.379-23.711l56.954-59.611c6.554-6.86,5.933-7.528-1.38-1.482l-63.547,52.526   C218.385,52.282,208.61,53.101,201.923,59.324z M205.415,84.387c-1.795,0-3.25-1.455-3.25-3.25c0-1.795,1.455-3.25,3.25-3.25   c1.795,0,3.25,1.455,3.25,3.25C208.665,82.932,207.21,84.387,205.415,84.387z M206.165,72.387c-2.302,0-4.167-1.866-4.167-4.168   c0-2.301,1.865-4.166,4.167-4.166c2.302,0,4.167,1.865,4.167,4.166C210.332,70.521,208.467,72.387,206.165,72.387z M215.333,79.053   c-2.025,0-3.667-1.642-3.667-3.666c0-2.025,1.642-3.667,3.667-3.667c2.024,0,3.666,1.642,3.666,3.667   C218.999,77.411,217.357,79.053,215.333,79.053z"/><path d="M238.076,90.387c3.976-5.61,5.768-11.935,5.362-18.796c-0.206-3.483-1.563-3.08,0.657-5.57   c4.955-5.556,9.909-11.112,14.863-16.667c9.451-10.599,18.903-21.197,28.355-31.796c0.898-1.007-0.581-2.497-1.484-1.484   c-14.962,16.778-29.925,33.556-44.887,50.334c-0.281,0.316-0.42,0.651-0.321,1.079c0.872,3.786,1.002,7.361,0.373,11.19   c-1.271,7.752-6.594,14.138-13.311,17.875c-12.894,7.173-28.813,0.503-34.996-12.15c-6.829-13.975,1.905-30.351,16.007-34.944   c3.222-1.05,6.644-1.156,9.99-0.903c0.921,0.069,5.388,1.832,6.316,1.117c0.795-0.613,1.59-1.225,2.385-1.837   c17.034-13.122,34.068-26.244,51.102-39.366c1.057-0.814,0.013-2.64-1.061-1.813c-17.809,13.719-35.617,27.437-53.426,41.156   c0.131-0.101-4.59-1.261-5.317-1.357c-2.553-0.335-5.123-0.073-7.651,0.299c-5.733,0.846-10.891,4.005-14.96,8.001   c-7.333,7.203-9.253,18.304-6.318,27.885C196.107,103.377,225.558,108.054,238.076,90.387z"/><rect y="373.772" width="44.087" height="8"/><rect x="147.079" y="373.772" width="260.902" height="8"/><path d="M158.482,361.698v4.772h249.5v-4.772h-4.648v-30.395H394v30.395h-9.5V341.94h-27.833v-23.471h-12v23.471h-6.5v-23.471h-12   v23.471h-6.439V329.1h-16.702v32.598h-2.386v-54.352h-33.404v54.352h-2.386v-95.439h-9.579v-9.289h-33.333v9.289h-9.579v95.439   h-2.386v-47.1h-16.702v29.038h-24.604v18.061H158.482z M272.009,311.592h23.859v4.772h-23.859V311.592z M272.009,321.135h23.859   v4.772h-23.859V321.135z M272.009,330.68h23.859v4.771h-23.859V330.68z M272.009,340.223h23.859v4.772h-23.859V340.223z    M272.009,349.768h23.859v4.771h-23.859V349.768z M240.991,330.68v-7.158h7.157v7.158H240.991z M248.148,335.451v7.158h-7.157   v-7.158H248.148z M240.991,318.75v-7.158h7.157v7.158H240.991z M240.991,306.82v-7.157h7.157v7.157H240.991z M240.991,294.89   v-7.157h7.157v7.157H240.991z M240.991,282.96v-7.157h7.157v7.157H240.991z M229.062,330.68v-7.158h7.157v7.158H229.062z    M236.219,335.451v7.158h-7.157v-7.158H236.219z M229.062,318.75v-7.158h7.157v7.158H229.062z M229.062,306.82v-7.157h7.157v7.157   H229.062z M229.062,294.89v-7.157h7.157v7.157H229.062z M229.062,282.96v-7.157h7.157v7.157H229.062z M252.921,318.75v-7.158h7.158   v7.158H252.921z M260.079,323.522v7.158h-7.158v-7.158H260.079z M252.921,306.82v-7.157h7.158v7.157H252.921z M252.921,294.89   v-7.157h7.158v7.157H252.921z M252.921,335.451h7.158v7.158h-7.158V335.451z M260.079,282.96h-7.158v-7.157h7.158V282.96z    M217.132,275.803h7.157v7.157h-7.157V275.803z M217.132,287.733h7.157v7.157h-7.157V287.733z M217.132,299.662h7.157v7.157h-7.157   V299.662z M217.132,311.592h7.157v7.158h-7.157V311.592z M217.132,323.522h7.157v7.158h-7.157V323.522z M217.132,335.451h7.157   v7.158h-7.157V335.451z M224.289,349.768h28.632v11.93h-28.632V349.768z"/><polygon points="51.982,361.698 45.5,361.698 45.5,344.469 9,344.469 9,361.698 0,361.698 0,366.469 51.982,366.469  "/><path d="M281.553,268.645v16.701h-9.544v21.474h23.859v-21.474h-9.544v-16.701H281.553z M281.553,304.434h-4.772v-4.771h4.772   V304.434z M281.553,294.89h-4.772v-4.772h4.772V294.89z M291.097,304.434h-4.772v-4.771h4.772V304.434z M291.097,290.117v4.772   h-4.772v-4.772H291.097z"/></g><text x="0" y="484.4" fill="#000000" font-size="5px" font-weight="bold" font-family="'Helvetica Neue', Helvetica, Arial-Unicode, Arial, Sans-serif"><!-- Created by Gan Khoon Lay --></text><text x="0" y="489.4" fill="#000000" font-size="5px" font-weight="bold" font-family="'Helvetica Neue', Helvetica, Arial-Unicode, Arial, Sans-serif"><!-- from the Noun Project --></text></svg>