<svg xmlns="http://www.w3.org/2000/svg" xmlns:xlink="http://www.w3.org/1999/xlink" version="1.1" x="0px" y="0px" viewBox="0 0 24 25" style="enable-background:new 0 0 24 20;" xml:space="preserve"><g><path d="M1,6c0,1.688,0.699,3.211,1.82,4.301c0.088-0.028,0.169-0.068,0.258-0.092C3.446,8.381,5.065,7,7,7   c0.388,0,0.773,0.059,1.145,0.173c1.043-1.591,2.7-2.681,4.556-3.036C11.918,1.736,9.663,0,7,0C3.685,0,1,2.687,1,6z"/><path d="M4.5,20h15c2.484,0,4.5-2.015,4.5-4.5c0-2.314-1.755-4.199-4.002-4.449c0-0.018,0-0.035,0-0.051c0-3.313-2.686-6-6-6   c-2.4,0-4.469,1.416-5.427,3.456C8.112,8.172,7.576,8,7,8c-1.656,0-3,1.343-3,3c0,0.018,0.006,0.033,0.006,0.051   C1.756,11.3,0,13.184,0,15.5C0,17.985,2.014,20,4.5,20z"/></g><text x="0" y="35" fill="#000000" font-size="5px" font-weight="bold" font-family="'Helvetica Neue', Helvetica, Arial-Unicode, Arial, Sans-serif"><!-- Created by Hea Poh Lin --></text><text x="0" y="40" fill="#000000" font-size="5px" font-weight="bold" font-family="'Helvetica Neue', Helvetica, Arial-Unicode, Arial, Sans-serif"><!-- from the Noun Project --></text></svg>