<svg xmlns="http://www.w3.org/2000/svg" data-name="Layer 1" viewBox="0 0 100 125" x="0px" y="0px"><title>Artboard 5</title><path d="M23.58,33.79c0-10.57,7.45-18.86,20.3-21.38V6.88a5.88,5.88,0,1,1,11.77,0v4.68a51.24,51.24,0,0,1,11,1.58,7,7,0,0,1-1.78,13.67,6.71,6.71,0,0,1-1.92-.28A36.89,36.89,0,0,0,52.28,25C44.48,25,42,28.38,42,31.75c0,4,4.2,6.49,14.41,10.33,14.29,5,20.06,11.65,20.06,22.46S68.86,84.35,55,86.75v6.36a5.88,5.88,0,1,1-11.77,0V87.59A55.48,55.48,0,0,1,28.93,85a7,7,0,0,1-4.61-8.34l.15-.57A6.79,6.79,0,0,1,31.1,71a7.14,7.14,0,0,1,2.31.39,40.42,40.42,0,0,0,13,2.23c6.85,0,11.53-2.64,11.53-7.45,0-4.56-3.84-7.45-12.73-10.45C32.35,51.44,23.58,45.44,23.58,33.79Z"/><text x="0" y="115" fill="#000000" font-size="5px" font-weight="bold" font-family="'Helvetica Neue', Helvetica, Arial-Unicode, Arial, Sans-serif"><!-- Created by Gregor Cresnar --></text><text x="0" y="120" fill="#000000" font-size="5px" font-weight="bold" font-family="'Helvetica Neue', Helvetica, Arial-Unicode, Arial, Sans-serif"><!-- from the Noun Project --></text></svg>