<svg xmlns:dc="http://purl.org/dc/elements/1.1/" xmlns:cc="http://creativecommons.org/ns#" xmlns:rdf="http://www.w3.org/1999/02/22-rdf-syntax-ns#" xmlns:svg="http://www.w3.org/2000/svg" xmlns="http://www.w3.org/2000/svg" xmlns:sodipodi="http://sodipodi.sourceforge.net/DTD/sodipodi-0.dtd" xmlns:inkscape="http://www.inkscape.org/namespaces/inkscape" version="1.1" x="0px" y="0px" viewBox="0 0 724.13043 904.7337375" enable-background="new 0 0 2000 2000" xml:space="preserve"><path style="" d="M 31.257,0 C 13.972,0 0,13.971 0,31.256 l 0,182.353 c 0,121.218 90.39,221.64799 207.36,237.44199 l 0,49.31 c 0,123.183 100.24,223.426 223.423,223.426 123.247,0 223.48943,-100.243 223.48943,-223.426 l 0,-71.86 c 0,-1.877 -0.174,-3.71 -0.49,-5.493 40.846,-13.876 70.348,-52.57499 70.348,-98.06199 0,-57.106 -46.447,-103.554 -103.554,-103.554 -57.10643,0 -103.55443,46.448 -103.55443,103.554 0,47.199 31.762,87.08799 75.0034,99.51899 -0.17,1.321 -0.269,2.666 -0.269,4.036 l 0,71.86 c 0,88.706 -72.2344,160.913 -160.9734,160.913 -88.738,0 -160.91,-72.175 -160.91,-160.913 l 0,-49.036 C 387.766,436.40699 479.231,335.514 479.231,213.609 l 0,-182.353 C 479.231,13.971 465.259,0 447.974,0 L 412.81,0 c -17.285,0 -31.257,13.971 -31.257,31.256 0,17.285 13.972,31.257 31.257,31.257 l 3.907,0 0,151.096 c 0,97.647 -79.422,177.10299 -177.1,177.10299 -97.677,0 -177.103,-79.45599 -177.103,-177.10299 l 0,-151.096 3.909,0 c 17.285,0 31.254,-13.972 31.254,-31.257 C 97.677,13.971 83.708,0 66.423,0 L 31.257,0 Z m 589.31943,283.939 c 22.6,0 41.04,18.411 41.04,41.04 0,22.63 -18.44,41.041 -41.04,41.041 -22.661,0 -41.04003,-18.411 -41.04003,-41.041 0,-22.629 18.37903,-41.04 41.04003,-41.04 z" fill="#000000"/><text x="0" y="738.78699" fill="#000000" font-size="5px" font-weight="bold" font-family="'Helvetica Neue', Helvetica, Arial-Unicode, Arial, Sans-serif"><!-- Created by logan --></text><text x="0" y="743.78699" fill="#000000" font-size="5px" font-weight="bold" font-family="'Helvetica Neue', Helvetica, Arial-Unicode, Arial, Sans-serif"><!-- from the Noun Project --></text></svg>