<svg xmlns="http://www.w3.org/2000/svg" data-name="Layer 1" viewBox="0 0 100 125" x="0px" y="0px"><title>Artboard 4</title><path d="M77.16,29.85a28,28,0,0,1-19.1,27.51s-.82.29-.82.77v6.55a8.22,8.22,0,1,1-16.44,0V58.13a17.38,17.38,0,0,1,12-16.34,11.67,11.67,0,0,0,7.94-11.46A12,12,0,0,0,48.92,19a11.64,11.64,0,0,0-10.46,6.64,8.22,8.22,0,0,1-14.81-7.14A28,28,0,0,1,48.81,2.54H49A28.37,28.37,0,0,1,77.16,29.85ZM57.28,89.2A8.26,8.26,0,1,0,49,97.46,8.27,8.27,0,0,0,57.28,89.2Z"/><text x="0" y="115" fill="#000000" font-size="5px" font-weight="bold" font-family="'Helvetica Neue', Helvetica, Arial-Unicode, Arial, Sans-serif"><!-- Created by Gregor Cresnar --></text><text x="0" y="120" fill="#000000" font-size="5px" font-weight="bold" font-family="'Helvetica Neue', Helvetica, Arial-Unicode, Arial, Sans-serif"><!-- from the Noun Project --></text></svg>