<svg xmlns="http://www.w3.org/2000/svg" xmlns:xlink="http://www.w3.org/1999/xlink" version="1.1" x="0px" y="0px" viewBox="0 0 48 60" style="enable-background:new 0 0 48 48;" xml:space="preserve"><title>Png 48px Solid - 70 Basic Icons</title><g><path d="M44,17.9c-1.3-1.9-3.4-3.2-5.7-3.6c0-0.3,0-0.5,0-0.8c0.1-6.5-5-11.8-11.4-12c-5.9-0.1-11,4.2-11.9,10.1   c-0.6-0.1-1.3-0.1-1.9-0.1C7,11.4,2,16,2,21.6c0,5.5,3.1,9.4,7.9,10.1c0.4,0.2,27.7,0.2,28.1,0.1c4.7-0.5,8.1-4,8.1-8.2   C46,21.5,45.3,19.5,44,17.9z"/><path d="M29.9,46.5c-0.4,0-0.8-0.1-1.2-0.4c-0.9-0.7-1.1-1.9-0.4-2.8l6.1-8.3c0.7-0.9,1.9-1.1,2.8-0.4c0.9,0.7,1.1,1.9,0.4,2.8   l-6.1,8.3C31.2,46.2,30.6,46.5,29.9,46.5z"/><path d="M19.9,46.5c-0.4,0-0.8-0.1-1.2-0.4c-0.9-0.7-1.1-1.9-0.4-2.8l6.1-8.3c0.7-0.9,1.9-1.1,2.8-0.4c0.9,0.7,1.1,1.9,0.4,2.8   l-6.1,8.3C21.2,46.2,20.6,46.5,19.9,46.5z"/><path d="M8.9,46.5c-0.4,0-0.8-0.1-1.2-0.4c-0.9-0.7-1.1-1.9-0.4-2.8l6.2-8.3c0.7-0.9,1.9-1.1,2.8-0.4c0.9,0.7,1.1,1.9,0.4,2.8   l-6.1,8.3C10.2,46.2,9.6,46.5,8.9,46.5z"/></g><text x="0" y="63" fill="#000000" font-size="5px" font-weight="bold" font-family="'Helvetica Neue', Helvetica, Arial-Unicode, Arial, Sans-serif"><!-- Created by Xicons.co --></text><text x="0" y="68" fill="#000000" font-size="5px" font-weight="bold" font-family="'Helvetica Neue', Helvetica, Arial-Unicode, Arial, Sans-serif"><!-- from the Noun Project --></text></svg>