<svg xmlns="http://www.w3.org/2000/svg" xmlns:xlink="http://www.w3.org/1999/xlink" version="1.1" x="0px" y="0px" viewBox="0 0 100 125" style="enable-background:new 0 0 100 100;" xml:space="preserve"><path d="M92.762,48.231h-9.979l5.896-5.898c0.691-0.691,0.691-1.809,0-2.5s-1.811-0.691-2.503,0l-8.202,8.205  c-0.059,0.056-0.082,0.13-0.131,0.193H55.329L72.715,30.74c0.096,0.015,0.194,0.029,0.295,0.029h11.604  c0.979,0,1.771-0.791,1.771-1.77c0-0.976-0.792-1.768-1.771-1.768h-8.412l8.113-8.163c0.688-0.694,0.684-1.812-0.008-2.501  c-0.693-0.689-1.812-0.686-2.502,0.007l-8.033,8.081V16.39c0-0.977-0.793-1.77-1.769-1.77s-1.769,0.792-1.769,1.77v11.603  c0,0.07,0.011,0.136,0.021,0.203L52.855,45.701V22.89c0.069-0.05,0.151-0.077,0.213-0.142l8.207-8.206  c0.688-0.691,0.688-1.809,0-2.5c-0.692-0.691-1.812-0.691-2.504,0l-5.916,5.919V7.934c0-0.976-0.795-1.77-1.771-1.77  c-0.976,0-1.768,0.794-1.768,1.77v9.984l-5.875-5.876c-0.691-0.691-1.811-0.691-2.501,0s-0.691,1.809,0,2.5l8.204,8.206  c0.05,0.051,0.115,0.072,0.172,0.115v22.61L32.608,28.251c0.001-0.029,0.009-0.056,0.009-0.087V16.562  c0-0.977-0.792-1.77-1.769-1.77c-0.978,0-1.771,0.792-1.771,1.77v8.052l-8.656-8.921c-0.681-0.701-1.801-0.72-2.502-0.038  c-0.701,0.679-0.717,1.8-0.038,2.501l8.971,9.245h-8.615c-0.978,0-1.77,0.794-1.77,1.77c0,0.977,0.792,1.769,1.77,1.769h11.604  c0.137,0,0.268-0.021,0.397-0.048l16.823,17.339H23.026c-0.048-0.063-0.072-0.137-0.13-0.193l-8.203-8.205  c-0.69-0.691-1.812-0.691-2.502,0s-0.691,1.809,0,2.5l5.897,5.898H7.24c-0.977,0-1.769,0.792-1.769,1.77  c0,0.978,0.792,1.769,1.769,1.769h10.848l-5.897,5.898c-0.691,0.691-0.691,1.811,0,2.502c0.345,0.344,0.798,0.518,1.251,0.518  s0.905-0.174,1.251-0.518l8.203-8.207c0.058-0.057,0.082-0.131,0.13-0.193h23.799L29.532,69.168  c-0.12-0.023-0.244-0.039-0.371-0.039H17.559c-0.977,0-1.769,0.795-1.769,1.77c0,0.979,0.792,1.769,1.769,1.769h8.496l-8.333,8.385  c-0.689,0.693-0.686,1.814,0.007,2.505c0.345,0.342,0.796,0.514,1.248,0.514c0.454,0,0.909-0.174,1.255-0.521l8.168-8.217  l0.001,8.18c0,0.975,0.792,1.768,1.769,1.768c0.978,0,1.77-0.793,1.77-1.768l-0.001-11.604c0-0.043-0.009-0.086-0.013-0.127  l17.392-17.496v23.334c-0.063,0.047-0.136,0.072-0.194,0.129l-8.203,8.207c-0.692,0.691-0.692,1.809,0,2.5  c0.346,0.346,0.798,0.52,1.25,0.52c0.453,0,0.905-0.174,1.251-0.52l5.896-5.896v9.512c0,0.978,0.792,1.769,1.768,1.769  c0.979,0,1.771-0.791,1.771-1.769v-9.512l5.896,5.896c0.347,0.346,0.799,0.52,1.251,0.52c0.453,0,0.905-0.174,1.25-0.52  c0.691-0.691,0.691-1.809,0-2.5l-8.204-8.207c-0.059-0.057-0.13-0.082-0.192-0.129V54.201L69.6,71.457  c-0.027,0.123-0.045,0.252-0.045,0.381v11.604c0,0.978,0.793,1.769,1.77,1.769c0.978,0,1.77-0.791,1.77-1.769v-8.381l8.875,9.146  c0.348,0.356,0.807,0.537,1.27,0.537c0.441,0,0.889-0.166,1.23-0.5c0.699-0.681,0.719-1.8,0.038-2.502l-8.87-9.142h8.295  c0.979,0,1.771-0.793,1.771-1.77s-0.792-1.768-1.771-1.768H72.331c-0.041,0-0.079,0.008-0.117,0.01L55.425,51.77h22.417  c0.049,0.062,0.072,0.138,0.131,0.193l8.202,8.207c0.347,0.344,0.8,0.518,1.251,0.518c0.453,0,0.905-0.174,1.252-0.518  c0.691-0.691,0.691-1.811,0-2.502l-5.896-5.898h9.979c0.977,0,1.768-0.791,1.768-1.769C94.529,49.024,93.736,48.231,92.762,48.231z"/><text x="0" y="115" fill="#000000" font-size="5px" font-weight="bold" font-family="'Helvetica Neue', Helvetica, Arial-Unicode, Arial, Sans-serif"><!-- Created by Cassandra Cappello --></text><text x="0" y="120" fill="#000000" font-size="5px" font-weight="bold" font-family="'Helvetica Neue', Helvetica, Arial-Unicode, Arial, Sans-serif"><!-- from the Noun Project --></text></svg>