<svg xmlns="http://www.w3.org/2000/svg" xmlns:xlink="http://www.w3.org/1999/xlink" version="1.1" x="0px" y="0px" viewBox="0 0 100 125" style="enable-background:new 0 0 100 100;" xml:space="preserve"><style type="text/css">
	.st0{display:none;}
	.st1{display:inline;fill:#FFCCCC;stroke:#000000;stroke-width:4;stroke-linecap:round;stroke-miterlimit:10;}
	.st2{fill:#FFFFFF;stroke:#000000;stroke-width:4;stroke-miterlimit:10;}
	.st3{fill:none;stroke:#000000;stroke-width:4;stroke-linecap:round;stroke-miterlimit:10;}
	.st4{stroke:#000000;stroke-width:4;stroke-miterlimit:10;}
	.st5{fill:none;stroke:#000000;stroke-width:4;stroke-miterlimit:10;}
	.st6{stroke:#FFFFFF;stroke-width:4;stroke-miterlimit:10;}
	.st7{fill:none;stroke:#000000;stroke-width:4;stroke-linecap:round;stroke-miterlimit:10;stroke-dasharray:5,7;}
	.st8{fill:#FFFFFF;stroke:#000000;stroke-width:7;stroke-miterlimit:10;}
	.st9{fill:none;stroke:#000000;stroke-width:7;stroke-linecap:round;stroke-miterlimit:10;}
	.st10{stroke:#000000;stroke-width:7;stroke-miterlimit:10;}
</style><g class="st0"><rect x="-1102.5" y="-147" class="st1" width="1225.4" height="301.5"/></g><g><path d="M50,30c-11,0-20,9-20,20s9,20,20,20s20-9,20-20S61,30,50,30z"/><path d="M50,26c1.9,0,3.5-1.6,3.5-3.5v-14C53.5,6.6,51.9,5,50,5s-3.5,1.6-3.5,3.5v14C46.5,24.4,48.1,26,50,26z"/><path d="M50,74c-1.9,0-3.5,1.6-3.5,3.5v14c0,1.9,1.6,3.5,3.5,3.5s3.5-1.6,3.5-3.5v-14C53.5,75.6,51.9,74,50,74z"/><path d="M26,50c0-1.9-1.6-3.5-3.5-3.5h-14C6.6,46.5,5,48.1,5,50s1.6,3.5,3.5,3.5h14C24.4,53.5,26,51.9,26,50z"/><path d="M91.5,46.5h-14c-1.9,0-3.5,1.6-3.5,3.5s1.6,3.5,3.5,3.5h14c1.9,0,3.5-1.6,3.5-3.5S93.4,46.5,91.5,46.5z"/><path d="M28.1,67l-9.9,9.9c-1.4,1.4-1.4,3.6,0,4.9c0.7,0.7,1.6,1,2.5,1s1.8-0.3,2.5-1l9.9-9.9c1.4-1.4,1.4-3.6,0-4.9   C31.7,65.6,29.5,65.6,28.1,67z"/><path d="M69.4,34c0.9,0,1.8-0.3,2.5-1l9.9-9.9c1.4-1.4,1.4-3.6,0-4.9c-1.4-1.4-3.6-1.4-4.9,0L67,28.1c-1.4,1.4-1.4,3.6,0,4.9   C67.7,33.7,68.5,34,69.4,34z"/><path d="M71.9,67c-1.4-1.4-3.6-1.4-4.9,0c-1.4,1.4-1.4,3.6,0,4.9l9.9,9.9c0.7,0.7,1.6,1,2.5,1s1.8-0.3,2.5-1c1.4-1.4,1.4-3.6,0-4.9   L71.9,67z"/><path d="M28.1,33c0.7,0.7,1.6,1,2.5,1c0.9,0,1.8-0.3,2.5-1c1.4-1.4,1.4-3.6,0-4.9l-9.9-9.9c-1.4-1.4-3.6-1.4-4.9,0   c-1.4,1.4-1.4,3.6,0,4.9L28.1,33z"/></g><text x="0" y="115" fill="#000000" font-size="5px" font-weight="bold" font-family="'Helvetica Neue', Helvetica, Arial-Unicode, Arial, Sans-serif"><!-- Created by Anastasia Latysheva --></text><text x="0" y="120" fill="#000000" font-size="5px" font-weight="bold" font-family="'Helvetica Neue', Helvetica, Arial-Unicode, Arial, Sans-serif"><!-- from the Noun Project --></text></svg>