<svg xmlns="http://www.w3.org/2000/svg" xmlns:xlink="http://www.w3.org/1999/xlink" version="1.1" x="0px" y="0px" viewBox="0 0 100 125" style="enable-background:new 0 0 100 100;" xml:space="preserve"><path d="M78.8,29H65.2v-0.2c0-5-4-9-9-9H43.8c-5,0-9,4-9,9V29H21.2c-5,0-9,4-9,9v33.3c0,5,4,9,9,9h57.5c5,0,9-4,9-9  V38C87.8,33,83.7,29,78.8,29z M38.8,28.8c0-2.8,2.2-5,5-5h12.5c2.8,0,5,2.2,5,5V29H38.8V28.8z"/><text x="0" y="115" fill="#000000" font-size="5px" font-weight="bold" font-family="'Helvetica Neue', Helvetica, Arial-Unicode, Arial, Sans-serif"><!-- Created by Fantastic --></text><text x="0" y="120" fill="#000000" font-size="5px" font-weight="bold" font-family="'Helvetica Neue', Helvetica, Arial-Unicode, Arial, Sans-serif"><!-- from the Noun Project --></text></svg>